<svg version="1.2" xmlns="http://www.w3.org/2000/svg"
  viewBox="0 0 14000 2764"  preserveAspectRatio="xMidYMid meet" width="2000" height="1000"
  
  >
  <defs>
    <!-- Define gradients here later -->
    <!-- Example gradient -->
   <!-- For the main Logo -->
    <linearGradient id="P" gradientUnits="userSpaceOnUse"/>
    <linearGradient id="g1" x2="1" href="#P" gradientTransform="matrix(0,-1747.853,11264.011,0,6630.657,1625.94)">
    <stop offset=".07" stop-color="#126cb5"/>
    <stop offset=".59" stop-color="#17c2e8"/>
    </linearGradient>


    <!-- For the Sun -->
    <linearGradient id="P" gradientUnits="userSpaceOnUse"/>
    <linearGradient id="sung1" x2="1" href="#P" gradientTransform="matrix(0,-1526.73,2082.937,0,446.792,1416.753)">
    <stop offset=".24" stop-color="#fadc29"/><stop offset="1" stop-color="#f06827"/>
    </linearGradient>

    
     
  </defs>

  <style>
    /* Animations for each group */
    .Sun_a{fill:url(#sung1)}
    
    .mainLogoa{fill:#2fc3e2}.mainLogob{fill:#35383c}.mainLogoc{fill:#2da9db}.mainLogod{mix-blend-mode:soft-light;fill:#fefefe}.mainLogoe{fill:#17c2e8}.mainLogof{fill:url(#g1);stroke:#8bc0e0;stroke-miterlimit:10;stroke-width:13.8}

    
    .customPoola{fill:#248db8}
    
    :root {
    /* Sun-related settings  translate(1650, 0) */
    --sun-position-left: 1650px;
    --sun-position-top: 0;
    --sun-start-position-top: 200px;
    --sun-animation-duration: 4s;
    --sun-animation-timing: ease-in;
    --sun-scale-start: 0;
    --sun-scale-end: 1;
    --sun-opacity-start: 0;
    --sun-opacity-end: 1;
    --sun-translate-start: 2000px;
    --sun-translate-end: 0px;

    /* Main logo text animation settings */
    --text-start-position: -500px;  /* Start off-screen (can be adjusted) */
    --text-final-position: 900px;   /* Final Y position (from your original transform) */
    --text-animation-duration: 3s;  /* Duration of the animation */
    --text-animation-timing: ease-out; /* Animation timing function */
}


/* Keyframes defining the animation */
@keyframes sunRise {
    0% {
        transform: translate(var(--sun-position-left), var(--sun-translate-start)) scale(var(--sun-scale-start));  /* Start just below final position, small */
        opacity: var(--sun-opacity-start);  /* Initially invisible */
    }

    50% {
        transform: translate(var(--sun-position-left), var(--sun-translate-end)) scale(1);  /* Midway: sun slightly larger */
        opacity: var(--sun-opacity-end);  /* Halfway opacity */
    }

    100% {
        transform: translate(var(--sun-position-left), var(--sun-translate-end)) scale(var(--sun-scale-end));  /* End at final position and size */
        opacity: var(--sun-opacity-end);  /* Fully visible */
    }
}

/* Applying the animation to the sun group */
#SunGroup {
    opacity: 0;
    position: relative;
    animation: sunRise 1.5s ease-in 1.4s forwards;
}



  /* Keyframes for translation, scaling, and opacity change */
@keyframes translateRise {
    0% {
        transform: translate(4200px, 1700px) scale(0.1); /* Start small and off-screen */
        opacity: 0; /* Initially invisible */
    }
    100% {
        transform: translate(4200px, 2700px) scale(1); /* End at final position with original size */
        opacity: 1; /* Fully visible at the end */
    }
}

/* Apply the animation to the group */
#customPoolGroup {
    opacity: 0; /* Make the element invisible before the animation starts */
    animation: translateRise 1s ease-out 2s forwards; /* 2s delay before animation starts */
}




       /* Slide-in animation for the mainLogoTextGroup */
        @keyframes slideInFromLeft {
            0% {
                transform: translateX(-100%) translateY(900px); /* Start far off-screen to the left, at Y=900 */
                opacity: 0; /* Initially invisible */
            }

            100% {
                transform: translateX(0) translateY(900px); /* End at final position: no horizontal movement, Y=900 */
                opacity: 1; /* Fully visible */
            }
        }

        /* Applying the slide-in animation for the main logo text */
        #mainLogoTextGroup {
            position: absolute;
            animation: slideInFromLeft 1s linear forwards; /* 1s duration, no easing */
        }


            



  </style>


  <!-- Group 1: Scaling Animation (Rectangle and Circle) -->
  <g  id="SunGroup"  transform="translate(1650, 0)">
  <path class="Sun_a" d="m961.1 1259.7c74.9 46.6 143.8 94 176.6 157.1 26.7-107.1 50.7-190.1 89.5-229 118.7-118.6 273.1-174.1 415.8-230.3 75.7-29.8 173.3-56.5 287.8-79-45.6-491.9-459.4-877-963.2-877-534.4 0-967.6 433.2-967.6 967.6 0 35.8 2.1 71.2 5.9 106.1 362.3 4.6 738.5 49.5 955.2 184.5z"/>

  </g>


  <!-- Group 2: Rotation Animation (Path) -->
  
  <g id="mainLogoTextGroup" transform="translate(0, 900)">
     <path class="mainLogoa" d="m1454.6 425.7c-980.5-31.1-1523.2 307.5-1239.6 395.8 283.6 88.4 1054.2 73.1 1054.2 274.7 0 89.7-204.1 93.2-110.4 186.9 164.4 164.4 1733.4 202.3 2155.3 75 344-103.7 478.9-261-40-332.5-252.9-34.8-807.1-149.7-724.3-232.5 171.8-171.8 39.2-331.4-1095.2-367.4z"/>
    <path class="mainLogob" d="m1400.3 506.2c948.3 30.1 1196.5 146.5 1152.1 284.3 167.8-170.8 30.8-329-1097.8-364.8-801.2-25.4-1310 196-1314.5 326 151.2-123.8 609.1-266.2 1260.2-245.5z"/>
    <path class="mainLogob" d="m3274.1 1025.6c-231.8-31.9-716.9-131.1-732.2-211.2-10.6 19.4-26.4 39.2-46.3 59.2-82.8 82.8 471.4 197.7 724.2 232.5 241.5 33.2 341.3 85.1 344.4 141.5 113.6-84.5 64-173.2-290.1-222z"/>
    <path class="mainLogoc" d="m1214.9 1176.6q0-4.8-0.6-9.5c-45.1 28.1-98 48.9-74.1 92.4 36-21 74.7-43.7 74.7-82.9z"/>
    <path class="mainLogod" d="m302.5 745.4c348.3-227.9 2517.2-193.2 2048 155.1 90.3-228.6-1375.2-266.8-2048-155.1z"/>
    <path class="mainLogod" d="m2583 1050.6c0 0 1677.2 153.1 268.9 336.4 214.3-73.4 281.1-239-268.9-336.4z"/>
    <path fill-rule="evenodd" class="mainLogoe" d="m1117.8 1114.9c-1.4 5.9-3.5 10.7-5.8 14.6-2.2 3.7-4.6 6.8-6.6 9.1-4.1 4.7-8.4 8-10.9 9.9-3.6 2.4-7.2 4.7-10.7 7l-21 13.4c-27.7 17.3-55.2 33-79.4 50.2-12.1 8.4-23.1 17.5-31.6 26.5-4.2 4.5-7.4 9.1-9.5 13.3-2.2 4.2-3.3 8-3.1 12.8 0.3 9.7 8.7 22.5 19.4 33.3 10.9 10.9 24 21 37.4 30.9-16.5-2.5-33-6.3-49-13.5-15.8-7.1-33.3-17-43.8-38.4-5-10.6-6.7-23.6-5.2-35.1 1.5-11.7 5.5-22 10-31.1 9.1-18.3 21.1-32.5 32.9-45.9 19.6-21 72.5-53 60.7-56.1-22.3-5.7-51.7-9.9-74-13.6l-87.1-13.5c-31.9-4.6-63.9-9.4-96-14.4-32.1-4.9-64.2-9.8-96.3-15.3-128.5-21.7-257.4-46.9-383.6-87.7-31.5-10.2-62.7-21.9-93.5-35.1-30.7-13.4-61-28.5-89.5-47.6-14.2-9.5-27.9-20.2-40.5-32.5-12.5-12.2-23.7-26.6-31.3-43.1-7.6-16.4-10.7-35.4-7.1-52.6 3.4-17.2 11.5-32.3 21.7-45.1-6.3 15.1-10.6 30.9-9.9 46.1 0.7 15.2 5.8 29.1 14.4 40.7 17.5 23.3 44.6 39 72.3 51.9 28.1 12.7 57.9 22.7 88.2 31.3 30.3 8.7 61.3 15.8 92.4 22.6 124.7 26.1 252.3 43.1 380.2 61.3l96.1 13.6c32.1 4.6 64.2 9.3 96.4 14.5 32.3 5.1 64.6 10.2 97.1 16.6 16.3 3.2 32.6 6.5 49.1 10.3 16.6 3.7 33.2 8 50.8 13.9 9 3 18 6.2 28.8 11.6 5.5 3 11.3 6 19.3 12.9 3.9 3.5 8.8 8.3 13.5 16.8 2.4 4.5 4.4 10 5.4 16.3 1 6.4 0.7 13.2-0.7 19.2zm-75.9-32.7l1.4-1.1c0.5-0.5-0.2 0-1.4 1.1z"/>
    <path class="mainLogoc" d="m133.2 631c341.1-604 3177.4-445.4 2514.2 194.8 173.3-302.7-319.3-416-833.4-452.5-606.3-43.1-1295.2-12.3-1680.8 257.7z"/>
    <path fill-rule="evenodd" class="mainLogof" d="m12398.3 279.4q0 40.3 0 80.2c-42.1 130.9-311.7 111-450 154.1-196.6 61.6-479.3 477.3-407.6 775.3 19.9 82.9 169.6 336.6-26.4 352.9-117 9.7-147.7-107.3-169.4-203.8-20.8-91.1-22.2-321.3-37.1-308.1-125.1 110-260.2 242.6-428.9 308.1-180.4 70.2-283.6 260.1-529.3 263.4-95.1 1.5-197.9-84.6-211.8-154-4.6-22.8 17.4-87.8 15.8-89.5-5.8-5.3-44.4 16.2-74.8 34.9-21.3 13.3-61.3 37.3-78 44.7-55 24.4-137.8 51.2-186 9.9-72.1-61.6 0.2-243.7-100.6-169-113 83.8-444.7 383.7-635.3 233.6-55.1-43.4-15.1-96.9-44.4-156.1-4.5-9.2-10.6-18.4-19.2-27.8-4.2-4.7-23.7 18.2-36.2 34.5-2.8 3.4-5.1 6.5-7 9-3 4.1-14.3 14.4-19.8 18.7-178.8 136.8-749.4 351.5-731-101.9 2.7-68.8 62.3-141.5-26.4-79.6-229 159.9-442.3 377.3-799.4 347.9-120.5-9.7-196.6-156.4-206.6-258.4-10.7-110.2-17.5-54.1-68.6-14.9-123 94.6-333.9 377.7-524.3 198.7-62.4-58.3-90.2-176.2-84.6-293.2 12.3-266.6-296.4 84.7-349.4 129.2-69 58-237.6 243.8-375.9 208.8-199.9-50.4 11.2-317.5 63.4-377.8 73.4-84.4-94.7 49.5-137.5 79.6-59.4 41.5-330.7 277.1-407.7 288.3-100.1 14.9-191.3-103-211.7-169-18.1-57.8 44.3-170.7 26.4-198.9-1.7-2.7-93.3 82.7-111.2 99.4-73.4 69-295.5 291.8-434.1 273.4-102.1-13.5-193.2-133.3-195.8-233.5-4-146.4 72.7-159.1-74.1-84.5-41.9 21.3-100.8 47-150.6 67.8-28.3 11.9-99.1 45.8-99.1 45.8-1.4 1.1-15.6 7-22.3 11.8-453.8 326.6-1764.5 541.9-2897.5-23.1 1813.9 369.9 2694.9-27 2694.9-246.7 0-149.3-556.8-226.8-676.8-246.8-125-19.9-322.6-59.8-322.6-209.4 0-82.2 40-264.2 80-331.5 77.5-127.1 597.5-364 1144.8-364 105 0 210 12.5 314.9 34.9 57.5 12.5 65 32.5 65 82.3 0 184.5-61.6 207.9-200.9 293.1-97.8 59.8-133.1 81.2-222.6 117.7-17.5 9.9-53.8 20.5-73.8 20.5-25 0-40-12.5-40-37.4 0-5 47.5-82.3 182.4-174.5l-5-5c-644.8 22.4-939.1 254.2-941.6 311.6 0 34.9-15.6 52.3 681.7 214.4 226.6 53.7 344.4 165.6 366.1 276.3 5.2-2 10.8-4.3 17-6.8 146.8-60.7 316.3-280 524.2-248.5 240.8 36.7 38.5 284.1-26.5 372.7-167.5 228.2 197.7-62.9 254.1-109.3 93.6-76.9 374.8-417 518.9-183.9 61.4 99.9-117.3 370.1-56 356.7 13.4-3 23-5.6 30.1-8 25.2-8.8 37.5-31.8 51.4-46.7 85.7-93.5 371.9-405.2 567.4-371.7 131.8 23.1 77.3 143.8 143 204 3 3 144.2-74.2 185.2-94.5 164.5-80.9 452.2-148.9 428.8 153.9-6.4 82.6-79.9 197.3-31.9 233.7 17.3 13 179.5-116.2 211.8-139.2 33.3-23.4 164.8-158.1 222.4-104.3 20.6 19.2-1.4 73.7 10.7 84.5 18.4 16.7 43.5-39.8 55.9-72.6 5-13.1 14.8-34 19.7-40.5 79.6-110.9 359-333.6 586.1-309.3 151.3 16.3 263.4 274.1 42.3 273.3-110.7-0.3-122.3-46.6-243.4 9.9-111.2 52.2-233.1 169.4-259.5 243.5-55.6 155.8 109.2 106 211.8 79.5 200.1-51.2 373.8-235.3 566.5-332.9 170.6-86.5 405.3-353.3 651.1-283.3 128.4 36.6 218.9 206.7 227.6 338 6.8 101.2-13.9 103.7 47.6 34.7 121-135.2 417-392.5 672.4-347.9 62.6 11 54.9 103.8 84.7 114.4 6.9 2.5 230.3-176.4 243.6 14.8 6 88.4-83.9 169.1-116.5 238.6-2.5 5-44.2 119.1-37.1 129.3 5.8 8.4 59.3-41.7 68.2-49.3 126.7-123.1 299.8-178.8 408.3-303.6 59.3-68.1 52.7-166.9 127-218.7 77.3-53.6 55.6 3.7 74.1-104.4 26.6-156.1 555.8-239.4 788.8-268.3 172.4-21.4 247.4-143.4 333.5-238.6 25.9-28.4 78.6-71.4 127-69.6 143.5 6 24.6 157.2 79.5 208.7 59.2 55.8 357.8-157.7 402.4-19.9 2.1 6.7 4.1 12.9 5.3 19.2zm-3589.4 825.7c-28.5-65.6-169.4 15.8-222.3 54.6-11.9 8.9-31.8 37-52.4 72.4-8.1 14.4-16.6 30-24.5 46-36.2 72.1-64.8 152.9-40.7 170.1 13.8 9.7 27.3 18.4 40.8 25.3 28.2 14.3 197.3-69.6 203.9-75.1 117.1-102.2 155-156 95.2-293.3zm931.8 0q0 0 0 0 0 0 0 0zm0 0c1.2 2.9 8.2-4.4 5.3-4.8-157.3-24.1-392.5 198-439.4 258.3-114.1 146.4 71.5 37.5 132.4-4.9 70.2-48.9 125.3-70.6 169.3-104.5 15.5-11.7 136.4-133.8 132.4-144.1zm709.4 104.4c-79 65.7-134.3 93-190.6 139.1-50.4 41.7-79.7 64.9-5.2 49.8 59.8-12.1 152 20.8 195.8 14.9 82.9-11.4 159.3-198 169.4-293.3 12.1-113.6-129 55.9-169.4 89.5zm1074.7-626.1c-17.6-16.4-109.6 44.9-106.3 44.9-83.9 33.6-217.7 47.1-338.4 69.3-73 13.6-287.8 40.4-301.8 104.4-8.3 38.9 69.8 201.2 68.9 283.3-0.5 26.3-32.1 141.4-5.4 159 6.7 4.6 120.4-78.3 148.4-99.5 170-126.9 279.4-269.3 434.1-422.3 14.4-14.3 124.5-116.6 100.5-139.1z"/>

  </g>


  <!-- Group 3: Translation Animation (Polygon) -->
  <g id="customPoolGroup" transform="translate(4200px, 2700px)"   >
    <path class="customPoola" d="m411.7 431.4c-43.4 37.2-109.9 58.1-171.6 58.1-137.4 0-238.4-104.9-238.4-242.7 0-140.3 104.3-246.9 241.3-246.9 60.6 0 123.5 21.1 168 58.9l-41.7 64.5c-34.9-25.8-77.2-40-117.6-40-91.2 0-153.7 71.5-153.7 161.2 0 88.7 60.6 160.2 152.4 160.2 43.6 0 87.3-16.2 118.9-39.4z"/>
<path class="customPoola" d="m928 6.7h93v302.1c0 109.1-77.4 180.7-188.9 180.7-112 0-188-71.6-188-180.5v-302.3h94.7v302.5c0 57.7 40.9 95.7 96.3 95.7 53.9 0 92.9-35.7 92.9-95.7z"/>
<path class="customPoola" d="m1434 404.7c45.4 0 81.4-16.8 81.4-55 0-97.6-241.8-32.1-241.8-204 0-96.1 75-145.8 166.8-145.8 59.6 0 119.6 21.1 163.7 56.1l-41.5 64.2c-36.1-24.6-80.3-37.5-116.9-37.5-43.9 0-78.2 18.9-78.2 55.6 0 97.4 243.8 27.8 243.8 204 0 99-76.8 147.2-172.7 147.2-69.9 0-129.8-25.8-178.7-65.7l42.1-66.1c42.3 30.8 87.7 47 132 47z"/>
<path class="customPoola" d="m2191.7 89.6h-139.1v393.2h-95.5v-393.2h-138.8v-82.9h373.4z"/>
<path fill-rule="evenodd" class="customPoola" d="m2387.8 244.5c0-142.7 107.4-244.6 246.1-244.6 138.6 0 245 102.1 245 244.2 0 141.5-105.8 245.4-245.6 245.4-140.1 0-245.5-103.9-245.5-245zm394.4 0.2c0-94.7-62.9-161.4-148.9-161.4-86.1 0-149 66.5-149 161.4 0 94.3 62.5 161.7 149 161.7 86.4 0 148.9-67.4 148.9-161.7z"/>
<path class="customPoola" d="m3243.9 6.7l141.5 293.1 139.5-293.1h101.6l18.5 476.1h-97.1l-11.3-323.1-120.8 260h-65.7l-124.5-259.4-12.1 322.5h-92.9l18.9-476.1z"/>
<path fill-rule="evenodd" class="customPoola" d="m4345.1 482.8h-93.7v-476.1h176.9c108.6 0 169.4 66.1 169.4 155.7 0 92.6-64.9 159.5-168.8 159.5h-83.8zm74.4-242.9c53.2 0 84-29 84-76.2 0-48.3-31.7-75.2-84-75.2h-74.4v151.4z"/>
<path fill-rule="evenodd" class="customPoola" d="m4809.9 244.5c0-142.7 107.4-244.6 246-244.6 138.7 0 245.1 102.1 245.1 244.2 0 141.5-105.8 245.4-245.7 245.4-140.1 0-245.4-103.9-245.4-245zm394.3 0.2c0-94.7-62.8-161.4-148.9-161.4-86 0-148.9 66.5-148.9 161.4 0 94.3 62.4 161.7 148.9 161.7 86.5 0 148.9-67.4 148.9-161.7z"/>
<path fill-rule="evenodd" class="customPoola" d="m5522.4 244.5c0-142.7 107.4-244.6 246-244.6 138.7 0 245.1 102.1 245.1 244.2 0 141.5-105.8 245.4-245.7 245.4-140.1 0-245.4-103.9-245.4-245zm394.3 0.2c0-94.7-62.8-161.4-148.9-161.4-86 0-148.9 66.5-148.9 161.4 0 94.3 62.5 161.7 148.9 161.7 86.5 0 148.9-67.4 148.9-161.7z"/>
<path class="customPoola" d="m6263.8 6.7h94.7v393.5h205.2v82.6h-299.9z"/>
<path class="customPoola" d="m6935.6 404.7c45.4 0 81.4-16.8 81.4-55 0-97.6-241.8-32.1-241.8-204 0-96.1 75-145.8 166.8-145.8 59.6 0 119.5 21.1 163.7 56.1l-41.5 64.2c-36.1-24.6-80.3-37.5-116.9-37.5-43.9 0-78.2 18.9-78.2 55.6 0 97.4 243.8 27.8 243.8 204 0 99-76.8 147.2-172.7 147.2-69.9 0-129.9-25.8-178.7-65.7l42.1-66.1c42.3 30.8 87.7 47 132 47z"/>

  </g>
</svg>
